<svg height="512" viewBox="0 0 64 64" width="512" xmlns="http://www.w3.org/2000/svg"><g id="Videogame-3" data-name="Videogame"><path d="m53 5v48a8 8 0 0 1 -8 8h-32a2.006 2.006 0 0 1 -2-2v-54a2.006 2.006 0 0 1 2-2h38a2.006 2.006 0 0 1 2 2z" fill="#e0e0e2"/><path d="m14 6h36v38h-36z" fill="#2488ff"/><path d="m24 51v3h-3v3h-3v-3h-3v-3h3v-3h3v3z" fill="#3e3d42"/><circle cx="46" cy="50" fill="#3e3d42" r="2"/><circle cx="39" cy="55" fill="#3e3d42" r="2"/><path d="m18 36h8v4h-8z" fill="#ff5023"/><path d="m42 36h4v4h-4z" fill="#64c37d"/><path d="m38 36h4v4h-4z" fill="#64c37d"/><path d="m34 36h4v4h-4z" fill="#64c37d"/><path d="m30 36h4v4h-4z" fill="#64c37d"/><path d="m42 32h4v4h-4z" fill="#ffda44"/><path d="m42 28h4v4h-4z" fill="#ffda44"/><path d="m42 24h4v4h-4z" fill="#ffda44"/><path d="m26 23h4v4h-4z" fill="#d80027"/><path d="m26 19h4v4h-4z" fill="#d80027"/><path d="m26 15h4v4h-4z" fill="#d80027"/><path d="m26 11h4v4h-4z" fill="#d80027"/><g fill="#231f20"><path d="m51 2h-38a3.009 3.009 0 0 0 -3 3v54a3.009 3.009 0 0 0 3 3h32a9.014 9.014 0 0 0 9-9v-48a3.009 3.009 0 0 0 -3-3zm1 51a7.008 7.008 0 0 1 -7 7h-32a1 1 0 0 1 -1-1v-54a1 1 0 0 1 1-1h38a1 1 0 0 1 1 1z"/><path d="m50 5h-36a1 1 0 0 0 -1 1v38a1 1 0 0 0 1 1h36a1 1 0 0 0 1-1v-38a1 1 0 0 0 -1-1zm-1 38h-34v-36h34z"/><path d="m24 50h-2v-2a1 1 0 0 0 -1-1h-3a1 1 0 0 0 -1 1v2h-2a1 1 0 0 0 -1 1v3a1 1 0 0 0 1 1h2v2a1 1 0 0 0 1 1h3a1 1 0 0 0 1-1v-2h2a1 1 0 0 0 1-1v-3a1 1 0 0 0 -1-1zm-1 3h-2a1 1 0 0 0 -1 1v2h-1v-2a1 1 0 0 0 -1-1h-2v-1h2a1 1 0 0 0 1-1v-2h1v2a1 1 0 0 0 1 1h2z"/><path d="m39 52a3 3 0 1 0 3 3 3 3 0 0 0 -3-3zm0 4a1 1 0 1 1 1-1 1 1 0 0 1 -1 1z"/><path d="m46 47a3 3 0 1 0 3 3 3 3 0 0 0 -3-3zm0 4a1 1 0 1 1 1-1 1 1 0 0 1 -1 1z"/><path d="m29 36v4a1 1 0 0 0 1 1h16a1 1 0 0 0 1-1v-16a1 1 0 0 0 -1-1h-4a1 1 0 0 0 -1 1v11h-11a1 1 0 0 0 -1 1zm14-7h2v2h-2zm2 6h-2v-2h2zm-2 4v-2h2v2zm2-14v2h-2v-2zm-4 14h-2v-2h2zm-4-2v2h-2v-2zm-6 0h2v2h-2z"/><path d="m18 41h8a1 1 0 0 0 1-1v-4a1 1 0 0 0 -1-1h-8a1 1 0 0 0 -1 1v4a1 1 0 0 0 1 1zm1-4h6v2h-6z"/><path d="m30 10h-4a1 1 0 0 0 -1 1v16a1 1 0 0 0 1 1h4a1 1 0 0 0 1-1v-16a1 1 0 0 0 -1-1zm-1 16h-2v-2h2zm0-4h-2v-2h2zm0-4h-2v-2h2zm0-4h-2v-2h2z"/></g></g></svg>